<?xml version="1.0" standalone="no"?>
<!DOCTYPE svg PUBLIC "-//W3C//DTD SVG 20010904//EN"
 "http://www.w3.org/TR/2001/REC-SVG-20010904/DTD/svg10.dtd">
<svg version="1.0" xmlns="http://www.w3.org/2000/svg"
 width="180.000000pt" height="180.000000pt" viewBox="0 0 180.000000 180.000000"
 preserveAspectRatio="xMidYMid meet">
<metadata>
Created by potrace 1.14, written by Peter Selinger 2001-2017
</metadata>
<g transform="translate(0.000000,180.000000) scale(0.100000,-0.100000)"
fill="#000000" stroke="none">
<path d="M864 1477 c-10 -12 -32 -47 -48 -77 -16 -30 -33 -60 -38 -67 -5 -7
-17 -27 -27 -45 -18 -34 -50 -90 -82 -143 -10 -16 -28 -49 -40 -72 -13 -24
-27 -43 -32 -43 -6 0 -7 -3 -4 -7 4 -3 0 -15 -10 -25 -9 -10 -12 -18 -7 -18 5
0 5 -4 -1 -8 -14 -10 -33 -41 -46 -74 -6 -16 -14 -28 -18 -28 -4 0 -13 -16
-21 -35 -8 -19 -18 -35 -22 -35 -5 0 -6 -4 -3 -10 3 -5 2 -10 -3 -10 -5 0 -12
-8 -15 -17 -4 -10 -18 -36 -32 -58 -14 -22 -28 -48 -31 -57 -4 -10 -11 -18
-16 -18 -5 0 -7 -4 -4 -9 3 -5 -1 -14 -9 -21 -8 -7 -15 -17 -15 -22 0 -5 -9
-21 -21 -37 -11 -15 -22 -44 -23 -64 -4 -47 6 -50 144 -54 339 -10 469 -9 463
1 -5 8 -3 8 8 0 9 -7 73 -9 179 -7 91 1 218 3 283 4 64 2 117 6 117 11 0 4 6
8 14 8 19 0 11 81 -9 93 -9 4 -13 12 -10 18 4 5 1 9 -4 9 -6 0 -11 5 -11 11 0
7 -18 40 -40 75 -22 35 -40 67 -40 71 0 5 -9 19 -20 33 -11 14 -20 33 -20 43
0 10 -4 16 -8 13 -5 -3 -14 11 -21 30 -7 18 -16 34 -20 34 -4 0 -13 16 -21 35
-8 19 -17 35 -20 35 -3 0 -12 16 -20 35 -8 19 -17 35 -21 35 -4 0 -9 8 -12 18
-3 9 -20 40 -37 67 -16 28 -33 58 -36 68 -4 9 -11 17 -16 17 -5 0 -7 4 -4 9 3
5 -1 14 -9 21 -8 7 -15 19 -15 26 0 8 -5 14 -11 14 -5 0 -7 5 -4 10 3 6 2 10
-4 10 -6 0 -13 11 -17 25 -3 14 -10 25 -15 25 -5 0 -9 6 -9 14 0 7 -9 25 -20
38 -10 14 -16 28 -13 32 3 3 1 6 -5 6 -7 0 -12 6 -12 13 -1 22 -46 68 -71 72
-18 3 -31 -2 -45 -18z"/>
</g>
</svg>
